HIERARCHY
ROOT Hip
{
  OFFSET 0.000000 0.000000 0.000000
  CHANNELS 6 Xposition Yposition Zposition Zrotation Xrotation Yrotation
  JOINT RHip
  {
    OFFSET 0.000000 0.000000 0.000000
    CHANNELS 3 Xposition Yposition Zposition
    End Site
    {
      OFFSET 0.000000 0.100000 0.000000
    }
  }
  JOINT RKnee
  {
    OFFSET 0.000000 0.000000 0.000000
    CHANNELS 3 Xposition Yposition Zposition
    End Site
    {
      OFFSET 0.000000 0.100000 0.000000
    }
  }
  JOINT RFoot
  {
    OFFSET 0.000000 0.000000 0.000000
    CHANNELS 3 Xposition Yposition Zposition
    End Site
    {
      OFFSET 0.000000 0.100000 0.000000
    }
  }
  JOINT LHip
  {
    OFFSET 0.000000 0.000000 0.000000
    CHANNELS 3 Xposition Yposition Zposition
    End Site
    {
      OFFSET 0.000000 0.100000 0.000000
    }
  }
  JOINT LKnee
  {
    OFFSET 0.000000 0.000000 0.000000
    CHANNELS 3 Xposition Yposition Zposition
    End Site
    {
      OFFSET 0.000000 0.100000 0.000000
    }
  }
  JOINT LFoot
  {
    OFFSET 0.000000 0.000000 0.000000
    CHANNELS 3 Xposition Yposition Zposition
    End Site
    {
      OFFSET 0.000000 0.100000 0.000000
    }
  }
  JOINT Spine
  {
    OFFSET 0.000000 0.000000 0.000000
    CHANNELS 3 Xposition Yposition Zposition
    End Site
    {
      OFFSET 0.000000 0.100000 0.000000
    }
  }
  JOINT Thorax
  {
    OFFSET 0.000000 0.000000 0.000000
    CHANNELS 3 Xposition Yposition Zposition
    End Site
    {
      OFFSET 0.000000 0.100000 0.000000
    }
  }
  JOINT Nose
  {
    OFFSET 0.000000 0.000000 0.000000
    CHANNELS 3 Xposition Yposition Zposition
    End Site
    {
      OFFSET 0.000000 0.100000 0.000000
    }
  }
  JOINT Head
  {
    OFFSET 0.000000 0.000000 0.000000
    CHANNELS 3 Xposition Yposition Zposition
    End Site
    {
      OFFSET 0.000000 0.100000 0.000000
    }
  }
  JOINT LShoulder
  {
    OFFSET 0.000000 0.000000 0.000000
    CHANNELS 3 Xposition Yposition Zposition
    End Site
    {
      OFFSET 0.000000 0.100000 0.000000
    }
  }
  JOINT LElbow
  {
    OFFSET 0.000000 0.000000 0.000000
    CHANNELS 3 Xposition Yposition Zposition
    End Site
    {
      OFFSET 0.000000 0.100000 0.000000
    }
  }
  JOINT LWrist
  {
    OFFSET 0.000000 0.000000 0.000000
    CHANNELS 3 Xposition Yposition Zposition
    End Site
    {
      OFFSET 0.000000 0.100000 0.000000
    }
  }
  JOINT RShoulder
  {
    OFFSET 0.000000 0.000000 0.000000
    CHANNELS 3 Xposition Yposition Zposition
    End Site
    {
      OFFSET 0.000000 0.100000 0.000000
    }
  }
  JOINT RElbow
  {
    OFFSET 0.000000 0.000000 0.000000
    CHANNELS 3 Xposition Yposition Zposition
    End Site
    {
      OFFSET 0.000000 0.100000 0.000000
    }
  }
  JOINT RWrist
  {
    OFFSET 0.000000 0.000000 0.000000
    CHANNELS 3 Xposition Yposition Zposition
    End Site
    {
      OFFSET 0.000000 0.100000 0.000000
    }
  }
}
MOTION
Frames: 16
Frame Time: 0.033333
0.000000 0.000000 0.950000 0.000000 0.000000 0.000000 -0.100000 0.000000 -0.050000 -0.100000 0.000000 -0.450000 -0.100000 0.000000 -0.900000 0.100000 0.000000 -0.050000 0.100000 0.000000 -0.450000 0.100000 0.000000 -0.900000 0.000000 0.000000 0.150000 0.000000 0.000000 0.400000 0.000000 0.000000 0.550000 0.000000 0.000000 0.650000 0.197754 0.029888 0.400000 0.425438 0.192860 0.250000 0.620596 0.332550 0.150000 -0.197754 -0.029888 0.400000 -0.028401 0.193091 0.250000 0.116759 0.384215 0.150000
0.000000 0.000000 0.950000 0.000000 0.000000 0.000000 -0.100000 0.000000 -0.050000 -0.100000 0.000000 -0.450000 -0.100000 0.000000 -0.900000 0.100000 0.000000 -0.050000 0.100000 0.000000 -0.450000 0.100000 0.000000 -0.900000 0.000000 0.000000 0.150000 0.000000 0.000000 0.400000 0.000000 0.000000 0.550000 0.000000 0.000000 0.650000 0.197757 0.029870 0.400000 0.420817 0.199115 0.250000 0.612012 0.344183 0.150000 -0.197757 -0.029870 0.400000 -0.034675 0.197736 0.250000 0.105110 0.392826 0.150000
0.000000 0.000000 0.950000 0.000000 0.000000 0.000000 -0.100000 0.000000 -0.050000 -0.100000 0.000000 -0.450000 -0.100000 0.000000 -0.900000 0.100000 0.000000 -0.050000 0.100000 0.000000 -0.450000 0.100000 0.000000 -0.900000 0.000000 0.000000 0.150000 0.000000 0.000000 0.400000 0.000000 0.000000 0.550000 0.000000 0.000000 0.650000 0.197765 0.029815 0.400000 0.416061 0.205163 0.250000 0.603172 0.355461 0.150000 -0.197765 -0.029815 0.400000 -0.041038 0.202212 0.250000 0.093300 0.401092 0.150000
0.000000 0.000000 0.950000 0.000000 0.000000 0.000000 -0.100000 0.000000 -0.050000 -0.100000 0.000000 -0.450000 -0.100000 0.000000 -0.900000 0.100000 0.000000 -0.050000 0.100000 0.000000 -0.450000 0.100000 0.000000 -0.900000 0.000000 0.000000 0.150000 0.000000 0.000000 0.400000 0.000000 0.000000 0.550000 0.000000 0.000000 0.650000 0.197779 0.029725 0.400000 0.411176 0.211002 0.250000 0.594089 0.366383 0.150000 -0.197779 -0.029725 0.400000 -0.047483 0.206519 0.250000 0.081341 0.409014 0.150000
0.000000 0.000000 0.950000 0.000000 0.000000 0.000000 -0.100000 0.000000 -0.050000 -0.100000 0.000000 -0.450000 -0.100000 0.000000 -0.900000 0.100000 0.000000 -0.050000 0.100000 0.000000 -0.450000 0.100000 0.000000 -0.900000 0.000000 0.000000 0.150000 0.000000 0.000000 0.400000 0.000000 0.000000 0.550000 0.000000 0.000000 0.650000 0.197798 0.029599 0.400000 0.406170 0.216631 0.250000 0.584775 0.376944 0.150000 -0.197798 -0.029599 0.400000 -0.054004 0.210658 0.250000 0.069248 0.416592 0.150000
0.000000 0.000000 0.950000 0.000000 0.000000 0.000000 -0.100000 0.000000 -0.050000 -0.100000 0.000000 -0.450000 -0.100000 0.000000 -0.900000 0.100000 0.000000 -0.050000 0.100000 0.000000 -0.450000 0.100000 0.000000 -0.900000 0.000000 0.000000 0.150000 0.000000 0.000000 0.400000 0.000000 0.000000 0.550000 0.000000 0.000000 0.650000 0.197822 0.029437 0.400000 0.401048 0.222048 0.250000 0.575243 0.387143 0.150000 -0.197822 -0.029437 0.400000 -0.060592 0.214629 0.250000 0.057033 0.423828 0.150000
0.000000 0.000000 0.950000 0.000000 0.000000 0.000000 -0.100000 0.000000 -0.050000 -0.100000 0.000000 -0.450000 -0.100000 0.000000 -0.900000 0.100000 0.000000 -0.050000 0.100000 0.000000 -0.450000 0.100000 0.000000 -0.900000 0.000000 0.000000 0.150000 0.000000 0.000000 0.400000 0.000000 0.000000 0.550000 0.000000 0.000000 0.650000 0.197851 0.029239 0.400000 0.395818 0.227252 0.250000 0.565505 0.396977 0.150000 -0.197851 -0.029239 0.400000 -0.067243 0.218433 0.250000 0.044708 0.430723 0.150000
0.000000 0.000000 0.950000 0.000000 0.000000 0.000000 -0.100000 0.000000 -0.050000 -0.100000 0.000000 -0.450000 -0.100000 0.000000 -0.900000 0.100000 0.000000 -0.050000 0.100000 0.000000 -0.450000 0.100000 0.000000 -0.900000 0.000000 0.000000 0.150000 0.000000 0.000000 0.400000 0.000000 0.000000 0.550000 0.000000 0.000000 0.650000 0.197885 0.029006 0.400000 0.390486 0.232242 0.250000 0.555572 0.406445 0.150000 -0.197885 -0.029006 0.400000 -0.073947 0.222070 0.250000 0.032285 0.437279 0.150000
0.000000 0.000000 0.950000 0.000000 0.000000 0.000000 -0.100000 0.000000 -0.050000 -0.100000 0.000000 -0.450000 -0.100000 0.000000 -0.900000 0.100000 0.000000 -0.050000 0.100000 0.000000 -0.450000 0.100000 0.000000 -0.900000 0.000000 0.000000 0.150000 0.000000 0.000000 0.400000 0.000000 0.000000 0.550000 0.000000 0.000000 0.650000 0.197925 0.028738 0.400000 0.385058 0.237019 0.250000 0.545458 0.415546 0.150000 -0.197925 -0.028738 0.400000 -0.080701 0.225542 0.250000 0.019777 0.443497 0.150000
0.000000 0.000000 0.950000 0.000000 0.000000 0.000000 -0.100000 0.000000 -0.050000 -0.100000 0.000000 -0.450000 -0.100000 0.000000 -0.900000 0.100000 0.000000 -0.050000 0.100000 0.000000 -0.450000 0.100000 0.000000 -0.900000 0.000000 0.000000 0.150000 0.000000 0.000000 0.400000 0.000000 0.000000 0.550000 0.000000 0.000000 0.650000 0.197968 0.028435 0.400000 0.379540 0.241583 0.250000 0.535172 0.424280 0.150000 -0.197968 -0.028435 0.400000 -0.087496 0.228851 0.250000 0.007195 0.449381 0.150000
0.000000 0.000000 0.950000 0.000000 0.000000 0.000000 -0.100000 0.000000 -0.050000 -0.100000 0.000000 -0.450000 -0.100000 0.000000 -0.900000 0.100000 0.000000 -0.050000 0.100000 0.000000 -0.450000 0.100000 0.000000 -0.900000 0.000000 0.000000 0.150000 0.000000 0.000000 0.400000 0.000000 0.000000 0.550000 0.000000 0.000000 0.650000 0.198016 0.028098 0.400000 0.373937 0.245932 0.250000 0.524726 0.432648 0.150000 -0.198016 -0.028098 0.400000 -0.094328 0.231996 0.250000 -0.005451 0.454933 0.150000
0.000000 0.000000 0.950000 0.000000 0.000000 0.000000 -0.100000 0.000000 -0.050000 -0.100000 0.000000 -0.450000 -0.100000 0.000000 -0.900000 0.100000 0.000000 -0.050000 0.100000 0.000000 -0.450000 0.100000 0.000000 -0.900000 0.000000 0.000000 0.150000 0.000000 0.000000 0.400000 0.000000 0.000000 0.550000 0.000000 0.000000 0.650000 0.198069 0.027726 0.400000 0.368256 0.250069 0.250000 0.514131 0.440648 0.150000 -0.198069 -0.027726 0.400000 -0.101190 0.234980 0.250000 -0.018150 0.460156 0.150000
0.000000 0.000000 0.950000 0.000000 0.000000 0.000000 -0.100000 0.000000 -0.050000 -0.100000 0.000000 -0.450000 -0.100000 0.000000 -0.900000 0.100000 0.000000 -0.050000 0.100000 0.000000 -0.450000 0.100000 0.000000 -0.900000 0.000000 0.000000 0.150000 0.000000 0.000000 0.400000 0.000000 0.000000 0.550000 0.000000 0.000000 0.650000 0.198125 0.027321 0.400000 0.362502 0.253993 0.250000 0.503396 0.448283 0.150000 -0.198125 -0.027321 0.400000 -0.108076 0.237804 0.250000 -0.030891 0.465054 0.150000
0.000000 0.000000 0.950000 0.000000 0.000000 0.000000 -0.100000 0.000000 -0.050000 -0.100000 0.000000 -0.450000 -0.100000 0.000000 -0.900000 0.100000 0.000000 -0.050000 0.100000 0.000000 -0.450000 0.100000 0.000000 -0.900000 0.000000 0.000000 0.150000 0.000000 0.000000 0.400000 0.000000 0.000000 0.550000 0.000000 0.000000 0.650000 0.198185 0.026882 0.400000 0.356680 0.257706 0.250000 0.492533 0.455554 0.150000 -0.198185 -0.026882 0.400000 -0.114982 0.240470 0.250000 -0.043665 0.469629 0.150000
0.000000 0.000000 0.950000 0.000000 0.000000 0.000000 -0.100000 0.000000 -0.050000 -0.100000 0.000000 -0.450000 -0.100000 0.000000 -0.900000 0.100000 0.000000 -0.050000 0.100000 0.000000 -0.450000 0.100000 0.000000 -0.900000 0.000000 0.000000 0.150000 0.000000 0.000000 0.400000 0.000000 0.000000 0.550000 0.000000 0.000000 0.650000 0.198248 0.026411 0.400000 0.350795 0.261208 0.250000 0.481549 0.462462 0.150000 -0.198248 -0.026411 0.400000 -0.121902 0.242980 0.250000 -0.056463 0.473886 0.150000
0.000000 0.000000 0.950000 0.000000 0.000000 0.000000 -0.100000 0.000000 -0.050000 -0.100000 0.000000 -0.450000 -0.100000 0.000000 -0.900000 0.100000 0.000000 -0.050000 0.100000 0.000000 -0.450000 0.100000 0.000000 -0.900000 0.000000 0.000000 0.150000 0.000000 0.000000 0.400000 0.000000 0.000000 0.550000 0.000000 0.000000 0.650000 0.198315 0.025908 0.400000 0.344852 0.264501 0.250000 0.470456 0.469010 0.150000 -0.198315 -0.025908 0.400000 -0.128832 0.245334 0.250000 -0.069275 0.477827 0.150000
